<svg data-v-fde0c5aa="" xmlns="http://www.w3.org/2000/svg" viewBox="0 0 300 300" class="font"><!----><defs data-v-fde0c5aa=""><!----></defs><rect data-v-fde0c5aa="" fill="transparent" x="0" y="0" width="300px" height="300px" class="logo-background-square"></rect><defs data-v-fde0c5aa=""><linearGradient data-v-fde0c5aa="" gradientTransform="rotate(25)" id="97da909d-2257-4c70-b1ac-c19165bbcbf4" x1="0%" y1="0%" x2="100%" y2="0%"><stop data-v-fde0c5aa="" offset="0%" stop-color="#A21F38" stop-opacity="1"></stop><stop data-v-fde0c5aa="" offset="100%" stop-color="#D8806B" stop-opacity="1"></stop></linearGradient></defs><g data-v-fde0c5aa="" id="5c86bf4f-2be6-412a-88ee-a147b7b8ad6e" fill="url(#97da909d-2257-4c70-b1ac-c19165bbcbf4)" transform="matrix(3.342956781387329,0,0,3.342956781387329,37.89393727359475,115.68454957303334)"><path d="M0.63 13.58L0.63 5.67L0.63 5.67Q0.63 5.43 0.67 5.25L0.67 5.25L0.67 5.25Q0.71 5.07 0.83 4.95L0.83 4.95L0.83 4.95Q0.94 4.83 1.15 4.77L1.15 4.77L1.15 4.77Q1.35 4.71 1.68 4.71L1.68 4.71L4.73 4.71L4.73 4.71Q5.20 4.71 5.67 4.77L5.67 4.77L5.67 4.77Q6.13 4.83 6.56 4.96L6.56 4.96L6.56 4.96Q6.99 5.10 7.35 5.32L7.35 5.32L7.35 5.32Q7.72 5.54 7.99 5.86L7.99 5.86L7.99 5.86Q8.26 6.19 8.41 6.62L8.41 6.62L8.41 6.62Q8.57 7.05 8.57 7.62L8.57 7.62L8.57 7.62Q8.57 8.46 8.34 9.04L8.34 9.04L8.34 9.04Q8.11 9.62 7.72 9.99L7.72 9.99L7.72 9.99Q7.33 10.37 6.81 10.57L6.81 10.57L6.81 10.57Q6.30 10.77 5.73 10.86L5.73 10.86L5.73 13.42L5.73 13.42Q5.73 13.58 5.70 13.77L5.70 13.77L5.70 13.77Q5.67 13.96 5.56 14.13L5.56 14.13L5.56 14.13Q5.46 14.29 5.23 14.41L5.23 14.41L5.23 14.41Q5.00 14.53 4.61 14.53L4.61 14.53L1.68 14.53L1.68 14.53Q1.35 14.53 1.15 14.46L1.15 14.46L1.15 14.46Q0.94 14.40 0.83 14.29L0.83 14.29L0.83 14.29Q0.71 14.17 0.67 13.99L0.67 13.99L0.67 13.99Q0.63 13.82 0.63 13.58L0.63 13.58ZM7.60 7.72L7.60 7.72L7.60 7.72Q7.60 7.31 7.49 6.97L7.49 6.97L7.49 6.97Q7.38 6.62 7.16 6.36L7.16 6.36L7.16 6.36Q6.93 6.10 6.58 5.93L6.58 5.93L6.58 5.93Q6.22 5.76 5.73 5.70L5.73 5.70L5.73 9.95L5.73 9.95Q6.22 9.87 6.58 9.67L6.58 9.67L6.58 9.67Q6.93 9.47 7.16 9.18L7.16 9.18L7.16 9.18Q7.38 8.89 7.49 8.51L7.49 8.51L7.49 8.51Q7.60 8.14 7.60 7.72ZM13.22 14.77L13.22 14.77L13.22 14.77Q12.71 14.77 12.20 14.68L12.20 14.68L12.20 14.68Q11.68 14.60 11.21 14.42L11.21 14.42L11.21 14.42Q10.75 14.25 10.34 13.96L10.34 13.96L10.34 13.96Q9.94 13.67 9.64 13.25L9.64 13.25L9.64 13.25Q9.34 12.84 9.17 12.29L9.17 12.29L9.17 12.29Q9.00 11.74 9.00 11.03L9.00 11.03L9.00 11.03Q9.00 10.33 9.17 9.78L9.17 9.78L9.17 9.78Q9.34 9.23 9.64 8.81L9.64 8.81L9.64 8.81Q9.94 8.39 10.34 8.10L10.34 8.10L10.34 8.10Q10.75 7.81 11.21 7.63L11.21 7.63L11.21 7.63Q11.68 7.45 12.20 7.37L12.20 7.37L12.20 7.37Q12.71 7.29 13.22 7.29L13.22 7.29L13.22 7.29Q13.69 7.29 14.19 7.35L14.19 7.35L14.19 7.35Q14.68 7.40 15.15 7.56L15.15 7.56L15.15 7.56Q15.62 7.71 16.03 7.97L16.03 7.97L16.03 7.97Q16.45 8.24 16.76 8.65L16.76 8.65L16.76 8.65Q17.07 9.06 17.25 9.63L17.25 9.63L17.25 9.63Q17.43 10.20 17.43 10.97L17.43 10.97L17.43 10.97Q17.43 11.76 17.25 12.36L17.25 12.36L17.25 12.36Q17.08 12.95 16.77 13.37L16.77 13.37L16.77 13.37Q16.45 13.79 16.04 14.06L16.04 14.06L16.04 14.06Q15.63 14.33 15.17 14.49L15.17 14.49L15.17 14.49Q14.70 14.64 14.20 14.70L14.20 14.70L14.20 14.70Q13.70 14.77 13.22 14.77ZM15.32 13.13L15.32 13.13L15.32 13.13Q15.53 13.13 15.74 13.03L15.74 13.03L15.74 13.03Q15.95 12.94 16.11 12.70L16.11 12.70L16.11 12.70Q16.27 12.46 16.37 12.04L16.37 12.04L16.37 12.04Q16.47 11.62 16.47 10.97L16.47 10.97L16.47 10.97Q16.47 10.36 16.37 9.96L16.37 9.96L16.37 9.96Q16.27 9.56 16.11 9.33L16.11 9.33L16.11 9.33Q15.94 9.11 15.74 9.02L15.74 9.02L15.74 9.02Q15.53 8.93 15.32 8.93L15.32 8.93L15.32 8.93Q15.16 8.93 14.95 9.00L14.95 9.00L14.95 9.00Q14.75 9.06 14.58 9.29L14.58 9.29L14.58 9.29Q14.40 9.51 14.29 9.92L14.29 9.92L14.29 9.92Q14.17 10.34 14.17 11.03L14.17 11.03L14.17 11.03Q14.17 11.72 14.27 12.13L14.27 12.13L14.27 12.13Q14.36 12.55 14.52 12.77L14.52 12.77L14.52 12.77Q14.68 12.99 14.89 13.06L14.89 13.06L14.89 13.06Q15.09 13.13 15.32 13.13ZM18.65 9.77L17.94 9.77L17.94 9.77Q17.79 9.77 17.79 9.62L17.79 9.62L17.79 9.07L17.79 9.07Q17.79 8.93 17.94 8.93L17.94 8.93L18.65 8.93L18.65 7.38L18.65 7.38Q18.65 7.27 18.68 7.17L18.68 7.17L18.68 7.17Q18.71 7.07 18.85 7.01L18.85 7.01L22.62 5.62L22.62 5.62Q22.88 5.52 23.05 5.48L23.05 5.48L23.05 5.48Q23.22 5.43 23.35 5.43L23.35 5.43L23.35 5.43Q23.40 5.43 23.46 5.44L23.46 5.44L23.46 5.44Q23.52 5.46 23.57 5.50L23.57 5.50L23.57 5.50Q23.62 5.54 23.65 5.62L23.65 5.62L23.65 5.62Q23.69 5.69 23.69 5.79L23.69 5.79L23.69 8.93L24.92 8.93L24.92 8.93Q25.06 8.93 25.06 9.07L25.06 9.07L25.06 9.62L25.06 9.62Q25.06 9.77 24.92 9.77L24.92 9.77L23.69 9.77L23.69 12.52L23.69 12.52Q23.69 13.01 23.85 13.21L23.85 13.21L23.85 13.21Q24.01 13.41 24.34 13.41L24.34 13.41L24.34 13.41Q24.42 13.41 24.50 13.39L24.50 13.39L24.50 13.39Q24.58 13.37 24.65 13.35L24.65 13.35L24.65 13.35Q24.73 13.34 24.79 13.32L24.79 13.32L24.79 13.32Q24.85 13.30 24.89 13.30L24.89 13.30L24.89 13.30Q24.96 13.30 24.96 13.39L24.96 13.39L24.96 13.92L24.96 13.92Q24.96 14.05 24.91 14.10L24.91 14.10L24.91 14.10Q24.86 14.15 24.81 14.16L24.81 14.16L24.81 14.16Q24.55 14.27 24.20 14.38L24.20 14.38L24.20 14.38Q23.85 14.49 23.44 14.58L23.44 14.58L23.44 14.58Q23.04 14.66 22.59 14.71L22.59 14.71L22.59 14.71Q22.13 14.77 21.68 14.77L21.68 14.77L21.68 14.77Q21.03 14.77 20.48 14.70L20.48 14.70L20.48 14.70Q19.92 14.64 19.51 14.40L19.51 14.40L19.51 14.40Q19.11 14.17 18.88 13.71L18.88 13.71L18.88 13.71Q18.65 13.25 18.65 12.47L18.65 12.47L18.65 9.77ZM32.61 14.53L28.96 14.53L28.96 14.53Q28.59 14.53 28.22 14.48L28.22 14.48L28.22 14.48Q27.85 14.43 27.51 14.32L27.51 14.32L27.51 14.32Q27.17 14.22 26.88 14.05L26.88 14.05L26.88 14.05Q26.58 13.88 26.37 13.62L26.37 13.62L26.37 13.62Q26.15 13.37 26.03 13.03L26.03 13.03L26.03 13.03Q25.91 12.69 25.91 12.24L25.91 12.24L25.91 12.24Q25.91 11.65 26.13 11.22L26.13 11.22L26.13 11.22Q26.36 10.80 26.74 10.52L26.74 10.52L26.74 10.52Q27.12 10.24 27.61 10.09L27.61 10.09L27.61 10.09Q28.10 9.94 28.63 9.90L28.63 9.90L28.63 9.43L28.63 9.43Q28.63 9.16 28.56 9.00L28.56 9.00L28.56 9.00Q28.49 8.85 28.39 8.77L28.39 8.77L28.39 8.77Q28.28 8.69 28.15 8.66L28.15 8.66L28.15 8.66Q28.03 8.64 27.91 8.64L27.91 8.64L27.91 8.64Q27.77 8.64 27.62 8.68L27.62 8.68L27.62 8.68Q27.47 8.72 27.32 8.78L27.32 8.78L27.32 8.78Q27.18 8.84 27.05 8.91L27.05 8.91L27.05 8.91Q26.92 8.98 26.83 9.03L26.83 9.03L26.83 9.03Q26.79 9.06 26.76 9.08L26.76 9.08L26.76 9.08Q26.72 9.10 26.69 9.10L26.69 9.10L26.69 9.10Q26.63 9.10 26.57 9.01L26.57 9.01L26.34 8.64L26.34 8.64Q26.30 8.59 26.30 8.54L26.30 8.54L26.30 8.54Q26.30 8.48 26.35 8.44L26.35 8.44L26.35 8.44Q26.39 8.40 26.43 8.37L26.43 8.37L26.43 8.37Q26.66 8.22 27.01 8.05L27.01 8.05L27.01 8.05Q27.36 7.89 27.79 7.76L27.79 7.76L27.79 7.76Q28.23 7.63 28.73 7.55L28.73 7.55L28.73 7.55Q29.24 7.46 29.78 7.46L29.78 7.46L29.78 7.46Q30.29 7.46 30.78 7.50L30.78 7.50L30.78 7.50Q31.27 7.53 31.70 7.65L31.70 7.65L31.70 7.65Q32.14 7.76 32.49 7.97L32.49 7.97L32.49 7.97Q32.85 8.18 33.12 8.52L33.12 8.52L33.12 8.52Q33.38 8.86 33.52 9.36L33.52 9.36L33.52 9.36Q33.67 9.86 33.67 10.55L33.67 10.55L33.67 13.60L33.67 13.60Q33.67 13.83 33.63 14.00L33.63 14.00L33.63 14.00Q33.58 14.18 33.47 14.29L33.47 14.29L33.47 14.29Q33.35 14.41 33.15 14.47L33.15 14.47L33.15 14.47Q32.94 14.53 32.61 14.53L32.61 14.53ZM28.63 13.65L28.63 10.77L28.63 10.77Q28.14 10.77 27.80 10.89L27.80 10.89L27.80 10.89Q27.47 11.01 27.26 11.22L27.26 11.22L27.26 11.22Q27.06 11.42 26.97 11.69L26.97 11.69L26.97 11.69Q26.88 11.96 26.88 12.25L26.88 12.25L26.88 12.25Q26.88 12.54 26.97 12.79L26.97 12.79L26.97 12.79Q27.06 13.05 27.26 13.24L27.26 13.24L27.26 13.24Q27.47 13.43 27.80 13.54L27.80 13.54L27.80 13.54Q28.14 13.65 28.63 13.65L28.63 13.65ZM35.15 9.77L34.44 9.77L34.44 9.77Q34.30 9.77 34.30 9.62L34.30 9.62L34.30 9.07L34.30 9.07Q34.30 8.93 34.44 8.93L34.44 8.93L35.15 8.93L35.15 7.38L35.15 7.38Q35.15 7.27 35.18 7.17L35.18 7.17L35.18 7.17Q35.21 7.07 35.35 7.01L35.35 7.01L39.12 5.62L39.12 5.62Q39.38 5.52 39.55 5.48L39.55 5.48L39.55 5.48Q39.72 5.43 39.85 5.43L39.85 5.43L39.85 5.43Q39.90 5.43 39.96 5.44L39.96 5.44L39.96 5.44Q40.02 5.46 40.07 5.50L40.07 5.50L40.07 5.50Q40.12 5.54 40.15 5.62L40.15 5.62L40.15 5.62Q40.19 5.69 40.19 5.79L40.19 5.79L40.19 8.93L41.42 8.93L41.42 8.93Q41.56 8.93 41.56 9.07L41.56 9.07L41.56 9.62L41.56 9.62Q41.56 9.77 41.42 9.77L41.42 9.77L40.19 9.77L40.19 12.52L40.19 12.52Q40.19 13.01 40.35 13.21L40.35 13.21L40.35 13.21Q40.51 13.41 40.84 13.41L40.84 13.41L40.84 13.41Q40.92 13.41 41.00 13.39L41.00 13.39L41.00 13.39Q41.08 13.37 41.16 13.35L41.16 13.35L41.16 13.35Q41.23 13.34 41.29 13.32L41.29 13.32L41.29 13.32Q41.35 13.30 41.39 13.30L41.39 13.30L41.39 13.30Q41.47 13.30 41.47 13.39L41.47 13.39L41.47 13.92L41.47 13.92Q41.47 14.05 41.41 14.10L41.41 14.10L41.41 14.10Q41.36 14.15 41.32 14.16L41.32 14.16L41.32 14.16Q41.06 14.27 40.70 14.38L40.70 14.38L40.70 14.38Q40.35 14.49 39.95 14.58L39.95 14.58L39.95 14.58Q39.54 14.66 39.09 14.71L39.09 14.71L39.09 14.71Q38.64 14.77 38.19 14.77L38.19 14.77L38.19 14.77Q37.54 14.77 36.98 14.70L36.98 14.70L36.98 14.70Q36.42 14.64 36.02 14.40L36.02 14.40L36.02 14.40Q35.61 14.17 35.38 13.71L35.38 13.71L35.38 13.71Q35.15 13.25 35.15 12.47L35.15 12.47L35.15 9.77ZM46.56 14.77L46.56 14.77L46.56 14.77Q46.05 14.77 45.53 14.68L45.53 14.68L45.53 14.68Q45.02 14.60 44.55 14.42L44.55 14.42L44.55 14.42Q44.08 14.25 43.68 13.96L43.68 13.96L43.68 13.96Q43.28 13.67 42.98 13.25L42.98 13.25L42.98 13.25Q42.68 12.84 42.51 12.29L42.51 12.29L42.51 12.29Q42.34 11.74 42.34 11.03L42.34 11.03L42.34 11.03Q42.34 10.33 42.51 9.78L42.51 9.78L42.51 9.78Q42.68 9.23 42.98 8.81L42.98 8.81L42.98 8.81Q43.28 8.39 43.68 8.10L43.68 8.10L43.68 8.10Q44.08 7.81 44.55 7.63L44.55 7.63L44.55 7.63Q45.02 7.45 45.53 7.37L45.53 7.37L45.53 7.37Q46.05 7.29 46.56 7.29L46.56 7.29L46.56 7.29Q47.03 7.29 47.53 7.35L47.53 7.35L47.53 7.35Q48.02 7.40 48.49 7.56L48.49 7.56L48.49 7.56Q48.96 7.71 49.37 7.97L49.37 7.97L49.37 7.97Q49.79 8.24 50.10 8.65L50.10 8.65L50.10 8.65Q50.41 9.06 50.59 9.63L50.59 9.63L50.59 9.63Q50.77 10.20 50.77 10.97L50.77 10.97L50.77 10.97Q50.77 11.76 50.59 12.36L50.59 12.36L50.59 12.36Q50.42 12.95 50.10 13.37L50.10 13.37L50.10 13.37Q49.79 13.79 49.38 14.06L49.38 14.06L49.38 14.06Q48.97 14.33 48.50 14.49L48.50 14.49L48.50 14.49Q48.04 14.64 47.54 14.70L47.54 14.70L47.54 14.70Q47.04 14.77 46.56 14.77ZM48.66 13.13L48.66 13.13L48.66 13.13Q48.87 13.13 49.08 13.03L49.08 13.03L49.08 13.03Q49.29 12.94 49.45 12.70L49.45 12.70L49.45 12.70Q49.61 12.46 49.71 12.04L49.71 12.04L49.71 12.04Q49.81 11.62 49.81 10.97L49.81 10.97L49.81 10.97Q49.81 10.36 49.71 9.96L49.71 9.96L49.71 9.96Q49.61 9.56 49.44 9.33L49.44 9.33L49.44 9.33Q49.28 9.11 49.08 9.02L49.08 9.02L49.08 9.02Q48.87 8.93 48.66 8.93L48.66 8.93L48.66 8.93Q48.49 8.93 48.29 9.00L48.29 9.00L48.29 9.00Q48.09 9.06 47.92 9.29L47.92 9.29L47.92 9.29Q47.74 9.51 47.63 9.92L47.63 9.92L47.63 9.92Q47.51 10.34 47.51 11.03L47.51 11.03L47.51 11.03Q47.51 11.72 47.61 12.13L47.61 12.13L47.61 12.13Q47.70 12.55 47.86 12.77L47.86 12.77L47.86 12.77Q48.02 12.99 48.22 13.06L48.22 13.06L48.22 13.06Q48.43 13.13 48.66 13.13ZM58.47 11.68L57.10 11.68L57.10 13.57L57.10 13.57Q57.10 13.82 57.07 14.00L57.07 14.00L57.07 14.00Q57.03 14.18 56.92 14.29L56.92 14.29L56.92 14.29Q56.81 14.41 56.61 14.47L56.61 14.47L56.61 14.47Q56.41 14.53 56.08 14.53L56.08 14.53L53.11 14.53L53.11 14.53Q52.78 14.53 52.58 14.46L52.58 14.46L52.58 14.46Q52.37 14.40 52.25 14.29L52.25 14.29L52.25 14.29Q52.14 14.17 52.10 13.99L52.10 13.99L52.10 13.99Q52.06 13.82 52.06 13.58L52.06 13.58L52.06 11.68L51.49 11.68L51.49 11.68Q51.34 11.68 51.34 11.53L51.34 11.53L51.34 10.99L51.34 10.99Q51.34 10.84 51.49 10.84L51.49 10.84L52.06 10.84L52.06 6.71L52.06 6.71Q52.06 5.97 52.21 5.43L52.21 5.43L52.21 5.43Q52.36 4.88 52.63 4.49L52.63 4.49L52.63 4.49Q52.89 4.09 53.25 3.84L53.25 3.84L53.25 3.84Q53.60 3.59 54.01 3.44L54.01 3.44L54.01 3.44Q54.42 3.29 54.86 3.24L54.86 3.24L54.86 3.24Q55.30 3.19 55.74 3.19L55.74 3.19L55.74 3.19Q56.12 3.19 56.53 3.23L56.53 3.23L56.53 3.23Q56.94 3.28 57.33 3.36L57.33 3.36L57.33 3.36Q57.72 3.44 58.05 3.54L58.05 3.54L58.05 3.54Q58.39 3.65 58.62 3.76L58.62 3.76L58.62 3.76Q58.67 3.79 58.73 3.84L58.73 3.84L58.73 3.84Q58.80 3.90 58.80 4.03L58.80 4.03L58.80 4.51L58.80 4.51Q58.80 4.60 58.76 4.62L58.76 4.62L58.76 4.62Q58.73 4.63 58.70 4.63L58.70 4.63L58.70 4.63Q58.61 4.63 58.51 4.59L58.51 4.59L58.51 4.59Q58.41 4.55 58.20 4.55L58.20 4.55L58.20 4.55Q57.98 4.55 57.77 4.65L57.77 4.65L57.77 4.65Q57.57 4.74 57.42 4.97L57.42 4.97L57.42 4.97Q57.27 5.20 57.19 5.60L57.19 5.60L57.19 5.60Q57.10 6.00 57.10 6.60L57.10 6.60L57.10 10.84L58.47 10.84L58.47 10.84Q58.61 10.84 58.61 10.99L58.61 10.99L58.61 11.53L58.61 11.53Q58.61 11.68 58.47 11.68L58.47 11.68ZM63.01 7.82L64.07 10.43L65.03 7.93L65.03 7.93Q65.06 7.84 65.09 7.77L65.09 7.77L65.09 7.77Q65.12 7.70 65.16 7.64L65.16 7.64L65.16 7.64Q65.20 7.59 65.27 7.56L65.27 7.56L65.27 7.56Q65.34 7.53 65.45 7.53L65.45 7.53L66.25 7.53L66.25 7.53Q66.44 7.53 66.44 7.64L66.44 7.64L66.44 7.64Q66.44 7.72 66.37 7.89L66.37 7.89L62.51 17.00L62.51 17.00Q62.47 17.09 62.44 17.15L62.44 17.15L62.44 17.15Q62.41 17.22 62.37 17.26L62.37 17.26L62.37 17.26Q62.34 17.30 62.28 17.32L62.28 17.32L62.28 17.32Q62.23 17.34 62.13 17.34L62.13 17.34L61.25 17.34L61.25 17.34Q61.04 17.34 61.04 17.22L61.04 17.22L61.04 17.22Q61.04 17.14 61.13 16.97L61.13 16.97L62.14 14.79L58.66 8.10L58.66 8.10Q58.63 8.03 58.61 7.96L58.61 7.96L58.61 7.96Q58.59 7.90 58.59 7.84L58.59 7.84L58.59 7.84Q58.59 7.67 58.72 7.60L58.72 7.60L58.72 7.60Q58.86 7.53 58.99 7.53L58.99 7.53L62.46 7.53L62.46 7.53Q62.71 7.53 62.84 7.63L62.84 7.63L62.84 7.63Q62.97 7.72 63.01 7.82L63.01 7.82Z"></path></g><!----><!----></svg>